<svg xmlns="http://www.w3.org/2000/svg" class="icon icon-tabler icon-tabler-thumb-up" width="24" height="24" viewBox="0 0 24 24" stroke-width="2" stroke="currentColor" fill="none" stroke-linecap="round" stroke-linejoin="round">
    <path stroke="none" d="M0 0h24v24H0z" fill="none"/>
    <path d="M7 10v12"/>
    <path d="M15 5.88l0 .12a3 3 0 0 1 -3 3h-3.5a1.5 1.5 0 0 0 -1.5 1.5v8.5a2 2 0 0 0 2 2h8.236a2 2 0 0 0 1.97 -1.657l1.764 -10.5a2 2 0 0 0 -1.97 -2.343h-4.5a1 1 0 0 1 -1 -1v-.12a2 2 0 0 1 .586 -1.414l1.414 -1.414a2 2 0 0 0 -2.828 -2.828l-5.172 5.172a2 2 0 0 0 -.586 1.414v.12"/>
</svg>
