<svg xmlns="http://www.w3.org/2000/svg" class="icon icon-tabler icon-tabler-thumb-down" width="24" height="24" viewBox="0 0 24 24" stroke-width="2" stroke="currentColor" fill="none" stroke-linecap="round" stroke-linejoin="round">
    <path stroke="none" d="M0 0h24v24H0z" fill="none"/>
    <path d="M7 14v-12"/>
    <path d="M15 18.12v-.12a3 3 0 0 0-3 -3H8.5A1.5 1.5 0 0 1 7 13.5V5a2 2 0 0 1 2 -2h8.236a2 2 0 0 1 1.97 1.657l1.764 10.5A2 2 0 0 1 19 17.5h-4.5a1 1 0 0 0-1 1v.12a2 2 0 0 0 .586 1.414l1.414 1.414a2 2 0 1 1 -2.828 2.828L7.5 19.104A2 2 0 0 1 6.914 17.69v-.12"/>
</svg>
